<svg height="512pt" viewBox="-121 0 512 512.00067" width="512pt" xmlns="http://www.w3.org/2000/svg"><g fill="#fdbf00"><path d="m40.574219 29.96875h189.011719v30.003906h-189.011719zm0 0"/><path d="m15.972656 90.972656h238.214844v30.003906h-238.214844zm0 0"/><path d="m27.972656 150.976562h214.214844v30.003907h-214.214844zm0 0"/></g><path d="m135.082031 29.96875h94.503907v30.003906h-94.503907zm0 0" fill="#ff9100"/><path d="m135.082031 150.976562h107.105469v30.003907h-107.105469zm0 0" fill="#ff9100"/><path d="m135.082031 90.972656h119.105469v30.003906h-119.105469zm0 0" fill="#ff9100"/><path d="m27.972656 331.988281h214.214844v30.003907h-214.214844zm0 0" fill="#fdbf00"/><path d="m15.972656 391.992188h238.214844v30.003906h-238.214844zm0 0" fill="#fdbf00"/><path d="m40.574219 451.996094h189.011719v30.003906h-189.011719zm0 0" fill="#fdbf00"/><path d="m135.082031 451.996094h94.503907v30.003906h-94.503907zm0 0" fill="#ff9100"/><path d="m135.082031 331.988281h107.105469v30.003907h-107.105469zm0 0" fill="#ff9100"/><path d="m135.082031 391.992188h119.105469v30.003906h-119.105469zm0 0" fill="#ff9100"/><path d="m239.488281 479.296875c-14.703125 21.003906-29.703125 29.703125-31.203125 30.605469-7.199218 4.199218-16.5 1.796875-20.398437-5.402344-4.203125-7.199219-1.800781-16.203125 5.398437-20.402344.601563-.296875 11.101563-6.898437 21.601563-21.902344 21-30.300781 29.101562-58.5 23.402343-84.003906-9.902343-45.605468-54.90625-75.707031-103.207031-104.507812-57.304687-34.800782-118.808593-69.304688-132.609375-132.609375-7.5-33.902344 2.101563-71.203125 28.203125-108.40625 14.699219-21 29.703125-29.703125 31.199219-30.601563 7.203125-4.199218 16.503906-1.800781 20.402344 5.402344 4.199218 7.199219 1.800781 16.5-5.398438 20.398438 0 0-10.800781 6.601562-21.601562 21.902343-21 30.300781-29.101563 59.503907-23.402344 85.003907 9.902344 45.605468 54.90625 74.40625 103.207031 103.507812 57.300781 34.804688 119.105469 70.605469 132.605469 133.609375 7.503906 33.902344-2.097656 70.203125-28.199219 107.40625zm0 0" fill="#7fe881"/><path d="m239.488281 479.296875c-14.703125 21.003906-29.703125 29.703125-31.203125 30.605469-7.199218 4.199218-16.5 1.796875-20.398437-5.402344-4.203125-7.199219-1.800781-16.203125 5.398437-20.402344.601563-.296875 11.101563-6.898437 21.601563-21.902344 21-30.300781 29.101562-58.5 23.402343-84.003906-9.902343-45.605468-54.90625-75.707031-103.207031-104.507812v-35.402344c57.300781 34.804688 119.105469 70.605469 132.605469 133.609375 7.503906 33.902344-2.097656 70.203125-28.199219 107.40625zm0 0" fill="#5bc980"/><path d="m267.6875 141.074219c-13.5 62.40625-75.304688 97.507812-132.605469 132.609375-48.304687 29.105468-93.605469 59.503906-103.207031 104.507812-5.699219 25.503906 2.402344 53.703125 23.402344 84.003906 10.800781 15.300782 21.601562 21.902344 21.601562 21.902344 7.199219 4.199219 9.597656 13.203125 5.398438 20.402344-2.699219 4.800781-7.800782 7.5-12.898438 7.5-2.703125 0-5.101562-.601562-7.503906-2.097656-1.5-.902344-16.5-9.601563-31.199219-30.605469-26.101562-37.203125-35.703125-73.503906-28.203125-107.40625 13.503906-62.402344 75.304688-98.507813 132.609375-133.308594 48.300781-29.402343 93.605469-58.804687 103.207031-103.808593 5.699219-25.5-2.402343-54.703126-23.402343-85.003907-10.800781-15.300781-21.601563-21.902343-21.601563-21.902343-7.199218-4.199219-9.601562-13.199219-5.398437-20.398438 4.199219-7.203125 13.199219-9.601562 20.398437-5.402344 1.5.898438 16.503906 9.601563 31.203125 30.601563 26.101563 37.203125 35.703125 74.503906 28.199219 108.40625zm0 0" fill="#ff637b"/><path d="m267.6875 141.074219c-13.5 62.40625-75.304688 97.507812-132.605469 132.609375v-35.101563c48.300781-29.402343 93.605469-58.804687 103.207031-103.808593 5.699219-25.5-2.402343-54.703126-23.402343-85.003907-10.800781-15.300781-21.601563-21.902343-21.601563-21.902343-7.199218-4.199219-9.601562-13.199219-5.398437-20.398438 4.199219-7.203125 13.199219-9.601562 20.398437-5.402344 1.5.898438 16.503906 9.601563 31.203125 30.601563 26.101563 37.203125 35.703125 74.503906 28.199219 108.40625zm0 0" fill="#e63950"/></svg>