<?xml version="1.0"?>
<svg xmlns="http://www.w3.org/2000/svg" height="512px" viewBox="0 0 496 496" width="512px"><path d="m464 280h-24v-184c0-20.855469-13.382812-38.59375-32-45.199219v-18.800781c0-17.648438-14.351562-32-32-32h-80c-17.648438 0-32 14.351562-32 32v16h-32v-16c0-17.648438-14.351562-32-32-32h-80c-17.648438 0-32 14.351562-32 32v18.800781c-18.617188 6.605469-32 24.34375-32 45.199219v184h-24c-17.648438 0-32 14.351562-32 32v128c0 17.648438 14.351562 32 32 32h25.136719c3.574219 13.769531 15.992187 24 30.863281 24h320c14.871094 0 27.289062-10.230469 30.863281-24h25.136719c17.648438 0 32-14.351562 32-32v-128c0-17.648438-14.351562-32-32-32zm-432 16h24v32h-40v-16c0-8.824219 7.175781-16 16-16zm-16 144v-96h40v112h-24c-8.824219 0-16-7.175781-16-16zm264-408c0-8.824219 7.175781-16 16-16h80c8.824219 0 16 7.175781 16 16v16h-48v-16h-16v16h-48zm-176 0c0-8.824219 7.175781-16 16-16h80c8.824219 0 16 7.175781 16 16v16h-48v-16h-16v16h-48zm320 432c0 8.824219-7.175781 16-16 16h-320c-8.824219 0-16-7.175781-16-16v-368c0-17.648438 14.351562-32 32-32h288c17.648438 0 32 14.351562 32 32zm40-168c8.824219 0 16 7.175781 16 16v16h-40v-32zm0 160h-24v-112h40v96c0 8.824219-7.175781 16-16 16zm0 0" fill="#91DC5A"/><path d="m128 240h240c4.425781 0 8-3.585938 8-8v-144c0-4.414062-3.574219-8-8-8h-240c-4.425781 0-8 3.585938-8 8v144c0 4.414062 3.574219 8 8 8zm8-144h224v128h-224zm0 0" fill="#91DC5A"/><path d="m336 112h-176c-4.425781 0-8 3.585938-8 8v80c0 4.414062 3.574219 8 8 8h176c4.425781 0 8-3.585938 8-8v-80c0-4.414062-3.574219-8-8-8zm-8 80h-160v-64h160zm0 0" fill="#91DC5A"/><path d="m384 272h-272c-13.230469 0-24 10.769531-24 24v144c0 13.230469 10.769531 24 24 24h272c13.230469 0 24-10.769531 24-24v-144c0-13.230469-10.769531-24-24-24zm-272 16h272c4.414062 0 8 3.585938 8 8v24h-288v-24c0-4.414062 3.585938-8 8-8zm24 48h16v8c0 4.414062-3.585938 8-8 8s-8-3.585938-8-8zm248 112h-272c-4.414062 0-8-3.585938-8-8v-104h16v8c0 13.230469 10.769531 24 24 24s24-10.769531 24-24v-8h224v104c0 4.414062-3.585938 8-8 8zm0 0" fill="#91DC5A"/><path d="m368 384h-64c-4.425781 0-8 3.574219-8 8v32c0 4.425781 3.574219 8 8 8h64c4.425781 0 8-3.574219 8-8v-32c0-4.425781-3.574219-8-8-8zm-8 32h-48v-16h48zm0 0" fill="#91DC5A"/></svg>
